<svg xmlns="http://www.w3.org/2000/svg" viewBox="0 0 800 600" width="800" height="600" role="img" aria-label="Derby cognac — Avant">
  <defs>
    <linearGradient id="cuir" x1="0" y1="0" x2="0.3" y2="1">
      <stop offset="0" stop-color="#5b4838"/><stop offset="1" stop-color="#43342a"/>
    </linearGradient>
    <radialGradient id="fond" cx="52%" cy="42%" r="72%">
      <stop offset="0" stop-color="#241811"/><stop offset="1" stop-color="#100b07"/>
    </radialGradient>
    <filter id="grain"><feTurbulence type="fractalNoise" baseFrequency="0.9" numOctaves="3"/>
      <feColorMatrix type="saturate" values="0"/></filter>
  </defs>

  <rect width="800" height="600" fill="url(#fond)"/>
  <rect width="800" height="600" filter="url(#grain)" opacity=".13"/>

  <ellipse cx="420" cy="430" rx="270" ry="26" fill="#000" opacity=".55"/>

  <path d="M168,394 L660,394 C672,394 674,404 662,408 L214,412 L210,410 L172,410 C162,410 160,404 162,400 Z" fill="#4b3c2c"/>
  <path d="M176,268 C174,244 204,236 238,244 C296,256 332,296 388,316 C476,342 570,352 644,368 C662,372 666,388 652,394 L188,394 C176,394 172,384 174,368 Z" fill="url(#cuir)"/>
  <path d="M176,268 C174,244 204,236 238,244 C296,256 332,296 388,316 C476,342 570,352 644,368 C662,372 666,388 652,394 L188,394 C176,394 172,384 174,368 Z" fill="none" stroke="#000" stroke-opacity=".35" stroke-width="2"/>
  <path d="M528,352 C536,372 540,382 542,394" fill="none" stroke="#000" stroke-opacity=".4" stroke-width="3"/>
  <path d="M528,352 C536,372 540,382 542,394" fill="none" stroke="#8b7f6d" stroke-opacity=".55" stroke-width="1.4" stroke-dasharray="5 6"/>
  <path d="M232,272 L286,286 M230,290 L288,304 M234,308 L292,320" stroke="#8d8375" stroke-width="5" stroke-linecap="round" fill="none" opacity=".6"/>
  <path d="M168,394 L662,394" stroke="#8b7f6d" stroke-opacity=".5" stroke-width="1.4" stroke-dasharray="6 7"/>
  
    <g stroke="#cbbca8" stroke-opacity=".35" fill="none" stroke-linecap="round">
      <path d="M300,300 l26,10 l-8,12 l30,6" stroke-width="1.6"/>
      <path d="M420,330 l34,6 l-10,12" stroke-width="1.4"/>
      <path d="M560,356 l30,6 l-12,10 l26,4" stroke-width="1.7"/>
      <path d="M250,286 l18,-8 l14,10" stroke-width="1.2"/>
    </g>
    <g fill="#cdbea9" fill-opacity=".28">
      <ellipse cx="612" cy="374" rx="34" ry="13"/>
      <ellipse cx="205" cy="300" rx="20" ry="26"/>
    </g>

  <g font-family="Georgia, 'Times New Roman', serif">
    <text x="56" y="86" fill="#8b7f6d" font-size="44" letter-spacing="2">Avant</text>
  </g>
  <g font-family="Helvetica, Arial, sans-serif">
    <text x="58" y="118" fill="#a08f7a" font-size="15" letter-spacing="4">DERBY COGNAC</text>
    <text x="58" y="560" fill="#7d6d5b" font-size="13" letter-spacing="3">VISUEL PROVISOIRE — À REMPLACER PAR VOTRE PHOTO</text>
  </g>
  <rect x="24" y="24" width="752" height="552" fill="none" stroke="#8b7f6d" stroke-opacity=".22"/>
</svg>
